<?xml version="1.0" encoding="UTF-8"?>
<!DOCTYPE svg PUBLIC "-//W3C//DTD SVG 1.1//EN" "http://www.w3.org/Graphics/SVG/1.1/DTD/svg11.dtd">
<svg xmlns="http://www.w3.org/2000/svg" version="1.1" width="992px" height="252px" style="shape-rendering:geometricPrecision; text-rendering:geometricPrecision; image-rendering:optimizeQuality; fill-rule:evenodd; clip-rule:evenodd" xmlns:xlink="http://www.w3.org/1999/xlink">
<g><path style="opacity:1" fill="#fefefe" d="M -0.5,-0.5 C 330.167,-0.5 660.833,-0.5 991.5,-0.5C 991.5,83.5 991.5,167.5 991.5,251.5C 660.833,251.5 330.167,251.5 -0.5,251.5C -0.5,167.5 -0.5,83.5 -0.5,-0.5 Z"/></g>
<g><path style="opacity:1" fill="#3d474d" d="M 6.5,6.5 C 26.0761,6.17373 45.5761,6.50707 65,7.5C 65.5,69.8324 65.6667,132.166 65.5,194.5C 90.8355,194.333 116.169,194.5 141.5,195C 142.931,195.465 144.097,196.299 145,197.5C 145.667,211.833 145.667,226.167 145,240.5C 144.626,241.416 144.126,242.25 143.5,243C 98.1667,243.667 52.8333,243.667 7.5,243C 7,242.5 6.5,242 6,241.5C 5.16996,163.097 5.33663,84.7632 6.5,6.5 Z"/></g>
<g><path style="opacity:1" fill="#3d474d" d="M 186.5,6.5 C 232.501,6.33334 278.501,6.50001 324.5,7C 325.656,21.4253 325.823,35.9253 325,50.5C 324.626,51.4162 324.126,52.2496 323.5,53C 297.589,54.4817 271.589,54.9817 245.5,54.5C 245.5,69.5 245.5,84.5 245.5,99.5C 270.836,99.3334 296.169,99.5 321.5,100C 322.931,100.465 324.097,101.299 325,102.5C 325.667,116.833 325.667,131.167 325,145.5C 324.5,147.333 323.333,148.5 321.5,149C 296.169,149.5 270.836,149.667 245.5,149.5C 245.5,164.5 245.5,179.5 245.5,194.5C 271.169,194.333 296.835,194.5 322.5,195C 323.333,195.833 324.167,196.667 325,197.5C 325.667,211.833 325.667,226.167 325,240.5C 324.626,241.416 324.126,242.25 323.5,243C 277.929,243.83 232.429,243.663 187,242.5C 185.839,203.083 185.339,163.583 185.5,124C 185.503,84.7629 185.836,45.5962 186.5,6.5 Z"/></g>
<g><path style="opacity:1" fill="#3d474d" d="M 366.5,6.5 C 387.844,6.16699 409.177,6.50033 430.5,7.5C 458.349,65.8642 486.183,124.198 514,182.5C 514.667,184.5 514.667,186.5 514,188.5C 504.946,206.776 495.779,224.942 486.5,243C 482.683,244.023 479.183,243.523 476,241.5C 439.622,165.076 402.955,88.7424 366,12.5C 365.322,10.4024 365.489,8.40239 366.5,6.5 Z"/></g>
<g><path style="opacity:1" fill="#5863ec" d="M 488.5,6.5 C 498.94,22.3829 509.94,38.5496 521.5,55C 522.938,55.2189 524.271,55.7189 525.5,56.5C 525.376,57.1067 525.043,57.44 524.5,57.5C 510.339,56.6688 496.006,56.1688 481.5,56C 480.584,55.6258 479.75,55.1258 479,54.5C 471.418,39.8373 464.252,25.004 457.5,10C 457.585,8.8926 457.919,7.8926 458.5,7C 468.494,6.50019 478.494,6.33352 488.5,6.5 Z"/></g>
<g><path style="opacity:1" fill="#4f5adf" d="M 488.5,6.5 C 500.167,6.5 511.833,6.5 523.5,6.5C 526.923,13.3657 531.59,19.8657 537.5,26C 537.043,26.414 536.709,26.914 536.5,27.5C 540.89,31.2634 544.057,35.93 546,41.5C 546.75,42.1258 547.584,42.6258 548.5,43C 548.167,43.3333 547.833,43.6667 547.5,44C 549.099,45.0658 550.099,46.5658 550.5,48.5C 552.718,49.9242 554.218,51.9242 555,54.5C 555.333,54.1667 555.667,53.8333 556,53.5C 556.333,54.8333 556.667,56.1667 557,57.5C 561.413,63.5782 565.413,69.9115 569,76.5C 570.011,77.3366 571.178,77.67 572.5,77.5C 567.405,88.0246 562.072,98.3579 556.5,108.5C 546.116,94.4701 536.283,79.4701 527,63.5C 525.961,62.2899 524.794,61.2899 523.5,60.5C 523.557,59.391 523.89,58.391 524.5,57.5C 525.043,57.44 525.376,57.1067 525.5,56.5C 524.271,55.7189 522.938,55.2189 521.5,55C 509.94,38.5496 498.94,22.3829 488.5,6.5 Z"/></g>
<g><path style="opacity:1" fill="#4753d5" d="M 523.5,6.5 C 534.5,6.5 545.5,6.5 556.5,6.5C 556.577,7.74975 557.244,8.58309 558.5,9C 557.549,9.71752 557.383,10.5509 558,11.5C 559.569,12.9379 561.069,14.4379 562.5,16C 562.167,16.3333 561.833,16.6667 561.5,17C 562.448,17.4828 563.448,17.6495 564.5,17.5C 568.76,27.255 574.426,36.0883 581.5,44C 581.167,44.3333 580.833,44.6667 580.5,45C 582.679,45.4419 583.345,46.4419 582.5,48C 583.582,49.3297 584.249,50.8297 584.5,52.5C 580.77,60.9596 576.77,69.293 572.5,77.5C 571.178,77.67 570.011,77.3366 569,76.5C 565.413,69.9115 561.413,63.5782 557,57.5C 556.667,56.1667 556.333,54.8333 556,53.5C 555.667,53.8333 555.333,54.1667 555,54.5C 554.218,51.9242 552.718,49.9242 550.5,48.5C 550.099,46.5658 549.099,45.0658 547.5,44C 547.833,43.6667 548.167,43.3333 548.5,43C 547.584,42.6258 546.75,42.1258 546,41.5C 544.057,35.93 540.89,31.2634 536.5,27.5C 536.709,26.914 537.043,26.414 537.5,26C 531.59,19.8657 526.923,13.3657 523.5,6.5 Z"/></g>
<g><path style="opacity:1" fill="#3e4cc9" d="M 556.5,6.5 C 572.744,6.17524 588.911,6.50857 605,7.5C 605.667,9.16667 605.667,10.8333 605,12.5C 598.392,26.0508 591.559,39.3842 584.5,52.5C 584.249,50.8297 583.582,49.3297 582.5,48C 583.345,46.4419 582.679,45.4419 580.5,45C 580.833,44.6667 581.167,44.3333 581.5,44C 574.426,36.0883 568.76,27.255 564.5,17.5C 563.448,17.6495 562.448,17.4828 561.5,17C 561.833,16.6667 562.167,16.3333 562.5,16C 561.069,14.4379 559.569,12.9379 558,11.5C 557.383,10.5509 557.549,9.71752 558.5,9C 557.244,8.58309 556.577,7.74975 556.5,6.5 Z"/></g>
<g><path style="opacity:1" fill="#3e484d" d="M 780.5,149.5 C 755.5,149.5 730.5,149.5 705.5,149.5C 705.5,164.5 705.5,179.5 705.5,194.5C 730.5,194.5 755.5,194.5 780.5,194.5C 782.371,194.859 783.871,195.859 785,197.5C 785.667,212.167 785.667,226.833 785,241.5C 784.5,242 784,242.5 783.5,243C 738.5,243.667 693.5,243.667 648.5,243C 647.667,242.167 646.833,241.333 646,240.5C 645.333,163.167 645.333,85.8333 646,8.5C 692.282,6.50794 738.782,5.84127 785.5,6.5C 785.667,21.5037 785.5,36.5037 785,51.5C 784.5,52 784,52.5 783.5,53C 757.589,54.4817 731.589,54.9817 705.5,54.5C 705.5,69.5 705.5,84.5 705.5,99.5C 731.169,99.3334 756.835,99.5 782.5,100C 783.333,100.833 784.167,101.667 785,102.5C 785.667,117.167 785.667,131.833 785,146.5C 783.871,148.141 782.371,149.141 780.5,149.5 Z"/></g>
<g><path style="opacity:1" fill="#3d474d" d="M 887.5,162.5 C 887.217,161.711 886.717,161.044 886,160.5C 885.5,187.165 885.333,213.831 885.5,240.5C 885.5,240.833 885.5,241.167 885.5,241.5C 884.711,241.783 884.044,242.283 883.5,243C 865.17,243.5 846.836,243.667 828.5,243.5C 827.21,242.942 826.377,241.942 826,240.5C 825.333,163.167 825.333,85.8333 826,8.5C 826.5,8 827,7.5 827.5,7C 861.5,6.33333 895.5,6.33333 929.5,7C 967.042,16.5714 986.042,40.9047 986.5,80C 987.281,113.808 972.948,138.475 943.5,154C 956.503,181.501 969.336,209.001 982,236.5C 982.635,238.635 982.301,240.635 981,242.5C 962.574,243.659 944.074,243.825 925.5,243C 912.734,216.197 900.068,189.364 887.5,162.5 Z"/></g>
<g><path style="opacity:1" fill="#949b9e" d="M 886.5,52.5 C 886.5,71.8333 886.5,91.1667 886.5,110.5C 893.167,110.5 899.833,110.5 906.5,110.5C 899.687,111.491 892.687,111.825 885.5,111.5C 885.17,91.6596 885.503,71.9929 886.5,52.5 Z"/></g>
<g><path style="opacity:1" fill="#fdfdfd" d="M 886.5,52.5 C 894.507,52.3336 902.507,52.5003 910.5,53C 931.507,56.3309 940.673,68.4976 938,89.5C 932.411,103.564 921.911,110.564 906.5,110.5C 899.833,110.5 893.167,110.5 886.5,110.5C 886.5,91.1667 886.5,71.8333 886.5,52.5 Z"/></g>
<g><path style="opacity:1" fill="#5b65f0" d="M 523.5,60.5 C 524.794,61.2899 525.961,62.2899 527,63.5C 536.283,79.4701 546.116,94.4701 556.5,108.5C 549.95,122.601 543.117,136.601 536,150.5C 532.381,153.343 529.048,153.01 526,149.5C 518.232,133.63 510.732,117.63 503.5,101.5C 509.37,87.4261 516.037,73.7595 523.5,60.5 Z"/></g>
<g><path style="opacity:1" fill="#abafb2" d="M 887.5,162.5 C 886.833,188.5 886.167,214.5 885.5,240.5C 885.333,213.831 885.5,187.165 886,160.5C 886.717,161.044 887.217,161.711 887.5,162.5 Z"/></g>
<g><path style="opacity:1" fill="#e5e6e7" d="M 780.5,149.5 C 756.006,150.498 731.339,150.831 706.5,150.5C 706.5,164.833 706.5,179.167 706.5,193.5C 731.339,193.169 756.006,193.502 780.5,194.5C 755.5,194.5 730.5,194.5 705.5,194.5C 705.5,179.5 705.5,164.5 705.5,149.5C 730.5,149.5 755.5,149.5 780.5,149.5 Z"/></g>
<g><path style="opacity:1" fill="#cfd2d4" d="M 885.5,241.5 C 885.586,242.496 885.252,243.329 884.5,244C 865.662,244.829 846.995,244.662 828.5,243.5C 846.836,243.667 865.17,243.5 883.5,243C 884.044,242.283 884.711,241.783 885.5,241.5 Z"/></g>
</svg>
