<?xml version="1.0" encoding="UTF-8"?>
<!DOCTYPE svg PUBLIC "-//W3C//DTD SVG 1.1//EN" "http://www.w3.org/Graphics/SVG/1.1/DTD/svg11.dtd">
<svg xmlns="http://www.w3.org/2000/svg" version="1.1" width="252px" height="252px" style="shape-rendering:geometricPrecision; text-rendering:geometricPrecision; image-rendering:optimizeQuality; fill-rule:evenodd; clip-rule:evenodd" xmlns:xlink="http://www.w3.org/1999/xlink">
<g><path style="opacity:0.997" fill="#fcfcfd" d="M -0.5,-0.5 C 83.5,-0.5 167.5,-0.5 251.5,-0.5C 251.5,83.5 251.5,167.5 251.5,251.5C 167.5,251.5 83.5,251.5 -0.5,251.5C -0.5,167.5 -0.5,83.5 -0.5,-0.5 Z"/></g>
<g><path style="opacity:1" fill="#3d474d" d="M 7.5,6.5 C 29.1667,6.5 50.8333,6.5 72.5,6.5C 99.164,64.8307 126.664,122.831 155,180.5C 155.667,183.167 155.667,185.833 155,188.5C 146.167,206.167 137.333,223.833 128.5,241.5C 124.601,242.992 120.935,242.658 117.5,240.5C 80.7274,164.622 44.2274,88.6218 8,12.5C 7.50454,10.5273 7.33788,8.5273 7.5,6.5 Z"/></g>
<g><path style="opacity:1" fill="#5964ec" d="M 131.5,6.5 C 141.026,22.2051 151.193,37.5384 162,52.5C 163.745,53.9557 165.578,55.289 167.5,56.5C 167.145,57.5223 166.478,58.189 165.5,58.5C 151.204,56.5401 136.537,55.3734 121.5,55C 113.918,40.6694 106.751,26.1694 100,11.5C 99.5065,9.86586 99.3398,8.19919 99.5,6.5C 110.167,6.5 120.833,6.5 131.5,6.5 Z"/></g>
<g><path style="opacity:1" fill="#505adf" d="M 131.5,6.5 C 142.833,6.5 154.167,6.5 165.5,6.5C 169.014,13.1885 173.514,19.1885 179,24.5C 178.747,27.3574 180.081,29.6907 183,31.5C 187.011,39.5268 192.011,46.8601 198,53.5C 201.733,60.6307 205.733,67.6307 210,74.5C 211.11,76.0368 212.61,76.7035 214.5,76.5C 208.898,86.7033 203.565,97.0366 198.5,107.5C 187.696,93.2493 177.862,78.2493 169,62.5C 167.482,61.8366 166.315,60.8366 165.5,59.5C 165.5,59.1667 165.5,58.8333 165.5,58.5C 166.478,58.189 167.145,57.5223 167.5,56.5C 165.578,55.289 163.745,53.9557 162,52.5C 151.193,37.5384 141.026,22.2051 131.5,6.5 Z"/></g>
<g><path style="opacity:1" fill="#4753d5" d="M 165.5,6.5 C 176.5,6.5 187.5,6.5 198.5,6.5C 199.092,10.5103 200.425,14.1769 202.5,17.5C 204.484,17.3832 206.15,18.0499 207.5,19.5C 211.507,28.3217 216.84,36.155 223.5,43C 223.167,43.3333 222.833,43.6667 222.5,44C 224.477,46.0429 225.477,48.5429 225.5,51.5C 222.114,59.9399 218.448,68.2733 214.5,76.5C 212.61,76.7035 211.11,76.0368 210,74.5C 205.733,67.6307 201.733,60.6307 198,53.5C 192.011,46.8601 187.011,39.5268 183,31.5C 180.081,29.6907 178.747,27.3574 179,24.5C 173.514,19.1885 169.014,13.1885 165.5,6.5 Z"/></g>
<g><path style="opacity:1" fill="#3f4dc9" d="M 198.5,6.5 C 214.5,6.5 230.5,6.5 246.5,6.5C 246.662,8.5273 246.495,10.5273 246,12.5C 239.647,25.8772 232.814,38.8772 225.5,51.5C 225.477,48.5429 224.477,46.0429 222.5,44C 222.833,43.6667 223.167,43.3333 223.5,43C 216.84,36.155 211.507,28.3217 207.5,19.5C 206.15,18.0499 204.484,17.3832 202.5,17.5C 200.425,14.1769 199.092,10.5103 198.5,6.5 Z"/></g>
<g><path style="opacity:1" fill="#5c66f0" d="M 165.5,59.5 C 166.315,60.8366 167.482,61.8366 169,62.5C 177.862,78.2493 187.696,93.2493 198.5,107.5C 191.529,121.442 184.529,135.442 177.5,149.5C 174.297,152.122 171.13,152.122 168,149.5C 159.95,133.401 152.45,117.067 145.5,100.5C 151.394,86.3792 158.061,72.7125 165.5,59.5 Z"/></g>
</svg>
